HIERARCHY
ROOT mixamorig:Hips
{
	OFFSET -0.000007 99.791939 0.000048
	CHANNELS 6 Xposition Yposition Zposition Xrotation Yrotation Zrotation
	JOINT mixamorig:Spine
	{
		OFFSET -0.000008 9.923462 -1.227335
		CHANNELS 3 Xrotation Yrotation Zrotation
		JOINT mixamorig:Spine1
		{
			OFFSET -0.001162 11.645439 -1.422341
			CHANNELS 3 Xrotation Yrotation Zrotation
			JOINT mixamorig:Spine2
			{
				OFFSET -0.001082 13.360199 -1.626459
				CHANNELS 3 Xrotation Yrotation Zrotation
				JOINT mixamorig:Neck
				{
					OFFSET -0.001294 15.032486 0.792904
					CHANNELS 3 Xrotation Yrotation Zrotation
					JOINT mixamorig:Head
					{
						OFFSET -0.000902 10.321838 3.142429
						CHANNELS 3 Xrotation Yrotation Zrotation
						JOINT mixamorig:HeadTop_End
						{
							OFFSET -0.001464 18.474670 6.636400
							CHANNELS 3 Xrotation Yrotation Zrotation
							End Site
							{
								OFFSET -0.001724 19.630463 0.000000
							}
						}
					}
				}
				JOINT mixamorig:LeftShoulder
				{
					OFFSET 6.105025 9.110947 0.705547
					CHANNELS 3 Xrotation Yrotation Zrotation
					JOINT mixamorig:LeftArm
					{
						OFFSET 12.655060 -0.264816 -2.600928
						CHANNELS 3 Xrotation Yrotation Zrotation
						JOINT mixamorig:LeftForeArm
						{
							OFFSET 27.404680 0.002457 -0.000007
							CHANNELS 3 Xrotation Yrotation Zrotation
							JOINT mixamorig:LeftHand
							{
								OFFSET 27.614456 0.002457 0.000007
								CHANNELS 3 Xrotation Yrotation Zrotation
								JOINT mixamorig:LeftHandThumb1
								{
									OFFSET 3.789009 -2.166824 3.002973
									CHANNELS 3 Xrotation Yrotation Zrotation
									JOINT mixamorig:LeftHandThumb2
									{
										OFFSET 3.675636 -2.121704 2.122010
										CHANNELS 3 Xrotation Yrotation Zrotation
										JOINT mixamorig:LeftHandThumb3
										{
											OFFSET 3.394531 -1.959473 1.959746
											CHANNELS 3 Xrotation Yrotation Zrotation
											JOINT mixamorig:LeftHandThumb4
											{
												OFFSET 2.679504 -1.546753 1.546951
												CHANNELS 3 Xrotation Yrotation Zrotation
												End Site
												{
													OFFSET 2.400604 -1.530380 1.964751
												}
											}
										}
									}
								}
								JOINT mixamorig:LeftHandIndex1
								{
									OFFSET 12.266647 -0.230743 2.822040
									CHANNELS 3 Xrotation Yrotation Zrotation
									JOINT mixamorig:LeftHandIndex2
									{
										OFFSET 3.891968 0.000336 0.000037
										CHANNELS 3 Xrotation Yrotation Zrotation
										JOINT mixamorig:LeftHandIndex3
										{
											OFFSET 3.415161 0.000305 -0.000010
											CHANNELS 3 Xrotation Yrotation Zrotation
											JOINT mixamorig:LeftHandIndex4
											{
												OFFSET 3.077995 0.000275 -0.000009
												CHANNELS 3 Xrotation Yrotation Zrotation
												End Site
												{
													OFFSET 3.077988 0.000259 0.000131
												}
											}
										}
									}
								}
								JOINT mixamorig:LeftHandMiddle1
								{
									OFFSET 12.775536 0.001129 0.000014
									CHANNELS 3 Xrotation Yrotation Zrotation
									JOINT mixamorig:LeftHandMiddle2
									{
										OFFSET 3.613968 0.000320 0.000000
										CHANNELS 3 Xrotation Yrotation Zrotation
										JOINT mixamorig:LeftHandMiddle3
										{
											OFFSET 3.459763 0.000305 -0.000028
											CHANNELS 3 Xrotation Yrotation Zrotation
											JOINT mixamorig:LeftHandMiddle4
											{
												OFFSET 3.680191 0.000320 0.000031
												CHANNELS 3 Xrotation Yrotation Zrotation
												End Site
												{
													OFFSET 3.680191 0.000351 -0.004814
												}
											}
										}
									}
								}
								JOINT mixamorig:LeftHandRing1
								{
									OFFSET 12.147018 0.011063 -2.216636
									CHANNELS 3 Xrotation Yrotation Zrotation
									JOINT mixamorig:LeftHandRing2
									{
										OFFSET 3.601181 0.000320 0.000033
										CHANNELS 3 Xrotation Yrotation Zrotation
										JOINT mixamorig:LeftHandRing3
										{
											OFFSET 3.307320 0.000305 -0.000023
											CHANNELS 3 Xrotation Yrotation Zrotation
											JOINT mixamorig:LeftHandRing4
											{
												OFFSET 3.660118 0.000320 0.000000
												CHANNELS 3 Xrotation Yrotation Zrotation
												End Site
												{
													OFFSET 3.660103 0.000229 0.005616
												}
											}
										}
									}
								}
								JOINT mixamorig:LeftHandPinky1
								{
									OFFSET 10.908218 -0.225174 -4.725837
									CHANNELS 3 Xrotation Yrotation Zrotation
									JOINT mixamorig:LeftHandPinky2
									{
										OFFSET 4.136658 0.000351 0.001166
										CHANNELS 3 Xrotation Yrotation Zrotation
										JOINT mixamorig:LeftHandPinky3
										{
											OFFSET 2.594826 0.000244 -0.001180
											CHANNELS 3 Xrotation Yrotation Zrotation
											JOINT mixamorig:LeftHandPinky4
											{
												OFFSET 2.923874 0.000244 0.000018
												CHANNELS 3 Xrotation Yrotation Zrotation
												End Site
												{
													OFFSET 2.923851 0.000275 -0.003346
												}
											}
										}
									}
								}
							}
						}
					}
				}
				JOINT mixamorig:RightShoulder
				{
					OFFSET -6.106495 9.109970 0.705565
					CHANNELS 3 Xrotation Yrotation Zrotation
					JOINT mixamorig:RightArm
					{
						OFFSET -12.655020 -0.267136 -2.600890
						CHANNELS 3 Xrotation Yrotation Zrotation
						JOINT mixamorig:RightForeArm
						{
							OFFSET -27.404675 -0.002365 0.000019
							CHANNELS 3 Xrotation Yrotation Zrotation
							JOINT mixamorig:RightHand
							{
								OFFSET -27.614464 -0.002396 0.000031
								CHANNELS 3 Xrotation Yrotation Zrotation
								JOINT mixamorig:RightHandThumb1
								{
									OFFSET -3.788620 -2.167480 3.002977
									CHANNELS 3 Xrotation Yrotation Zrotation
									JOINT mixamorig:RightHandThumb2
									{
										OFFSET -3.675247 -2.122314 2.122009
										CHANNELS 3 Xrotation Yrotation Zrotation
										JOINT mixamorig:RightHandThumb3
										{
											OFFSET -3.394188 -1.960129 1.959755
											CHANNELS 3 Xrotation Yrotation Zrotation
											JOINT mixamorig:RightHandThumb4
											{
												OFFSET -2.679230 -1.547195 1.546953
												CHANNELS 3 Xrotation Yrotation Zrotation
												End Site
												{
													OFFSET -2.398781 -1.531693 1.965949
												}
											}
										}
									}
								}
								JOINT mixamorig:RightHandIndex1
								{
									OFFSET -12.266594 -0.232895 2.822051
									CHANNELS 3 Xrotation Yrotation Zrotation
									JOINT mixamorig:RightHandIndex2
									{
										OFFSET -3.891968 -0.000336 0.000040
										CHANNELS 3 Xrotation Yrotation Zrotation
										JOINT mixamorig:RightHandIndex3
										{
											OFFSET -3.415161 -0.000305 -0.000006
											CHANNELS 3 Xrotation Yrotation Zrotation
											JOINT mixamorig:RightHandIndex4
											{
												OFFSET -3.077988 -0.000275 0.000006
												CHANNELS 3 Xrotation Yrotation Zrotation
												End Site
												{
													OFFSET -3.077980 0.000229 -0.008454
												}
											}
										}
									}
								}
								JOINT mixamorig:RightHandMiddle1
								{
									OFFSET -12.775528 -0.001114 0.000025
									CHANNELS 3 Xrotation Yrotation Zrotation
									JOINT mixamorig:RightHandMiddle2
									{
										OFFSET -3.613968 -0.000320 0.000005
										CHANNELS 3 Xrotation Yrotation Zrotation
										JOINT mixamorig:RightHandMiddle3
										{
											OFFSET -3.459763 -0.000305 -0.000025
											CHANNELS 3 Xrotation Yrotation Zrotation
											JOINT mixamorig:RightHandMiddle4
											{
												OFFSET -3.680191 -0.000320 0.000034
												CHANNELS 3 Xrotation Yrotation Zrotation
												End Site
												{
													OFFSET -3.680168 -0.000031 0.012581
												}
											}
										}
									}
								}
								JOINT mixamorig:RightHandRing1
								{
									OFFSET -12.147003 0.008942 -2.216624
									CHANNELS 3 Xrotation Yrotation Zrotation
									JOINT mixamorig:RightHandRing2
									{
										OFFSET -3.601196 -0.000320 0.000037
										CHANNELS 3 Xrotation Yrotation Zrotation
										JOINT mixamorig:RightHandRing3
										{
											OFFSET -3.307312 -0.000290 -0.000019
											CHANNELS 3 Xrotation Yrotation Zrotation
											JOINT mixamorig:RightHandRing4
											{
												OFFSET -3.660118 -0.000320 0.000002
												CHANNELS 3 Xrotation Yrotation Zrotation
												End Site
												{
													OFFSET -3.660110 0.000107 0.002180
												}
											}
										}
									}
								}
								JOINT mixamorig:RightHandPinky1
								{
									OFFSET -10.908173 -0.227081 -4.725826
									CHANNELS 3 Xrotation Yrotation Zrotation
									JOINT mixamorig:RightHandPinky2
									{
										OFFSET -4.136642 -0.000366 0.000029
										CHANNELS 3 Xrotation Yrotation Zrotation
										JOINT mixamorig:RightHandPinky3
										{
											OFFSET -2.594841 -0.000229 -0.000036
											CHANNELS 3 Xrotation Yrotation Zrotation
											JOINT mixamorig:RightHandPinky4
											{
												OFFSET -2.923874 -0.000259 0.000021
												CHANNELS 3 Xrotation Yrotation Zrotation
												End Site
												{
													OFFSET -2.923820 0.000336 -0.012876
												}
											}
										}
									}
								}
							}
						}
					}
				}
			}
		}
	}
	JOINT mixamorig:LeftUpLeg
	{
		OFFSET 9.124458 -6.656387 -0.055378
		CHANNELS 3 Xrotation Yrotation Zrotation
		JOINT mixamorig:LeftLeg
		{
			OFFSET 0.244681 -40.595421 -0.515619
			CHANNELS 3 Xrotation Yrotation Zrotation
			JOINT mixamorig:LeftFoot
			{
				OFFSET -0.244669 -42.047928 -2.059156
				CHANNELS 3 Xrotation Yrotation Zrotation
				JOINT mixamorig:LeftToeBase
				{
					OFFSET 0.373535 -7.208548 13.966561
					CHANNELS 3 Xrotation Yrotation Zrotation
					JOINT mixamorig:LeftToe_End
					{
						OFFSET -0.142059 -0.175224 9.997455
						CHANNELS 3 Xrotation Yrotation Zrotation
						End Site
						{
							OFFSET -0.142060 -0.175223 9.997459
						}
					}
				}
			}
		}
	}
	JOINT mixamorig:RightUpLeg
	{
		OFFSET -9.124448 -6.656403 -0.055378
		CHANNELS 3 Xrotation Yrotation Zrotation
		JOINT mixamorig:RightLeg
		{
			OFFSET -0.244680 -40.595459 -0.514290
			CHANNELS 3 Xrotation Yrotation Zrotation
			JOINT mixamorig:RightFoot
			{
				OFFSET 0.244670 -42.047859 -2.060535
				CHANNELS 3 Xrotation Yrotation Zrotation
				JOINT mixamorig:RightToeBase
				{
					OFFSET -0.373535 -7.208539 13.966558
					CHANNELS 3 Xrotation Yrotation Zrotation
					JOINT mixamorig:RightToe_End
					{
						OFFSET 0.141798 -0.175009 9.997463
						CHANNELS 3 Xrotation Yrotation Zrotation
						End Site
						{
							OFFSET 0.141798 -0.175009 9.997467
						}
					}
				}
			}
		}
	}
}
MOTION
Frames: 6
Frame Time: 0.033333
-86.229149 96.401398 -3.480554 -2.188664 49.439764 2.639219 3.293596 15.978061 0.841629 0.213853 2.170397 -1.376543 0.259624 2.162112 -1.383256 2.966373 -11.662827 4.986879 21.508892 -55.689217 37.779228 0.000000 -0.000001 -0.000002 -0.169444 2.568492 5.380049 53.211948 -31.447888 -64.747946 0.007590 -56.167518 0.004057 37.445792 -4.010013 -16.890271 -1.540397 3.690020 6.142339 3.938073 7.949317 0.747597 -0.579598 1.574940 2.538717 0.000002 -0.000000 0.000004 0.715946 3.062832 -26.314325 0.226629 1.755532 -14.718441 0.233713 1.782998 -14.948161 -0.000001 -0.000001 -0.000002 0.802068 3.230829 -27.887889 0.214697 1.710025 -14.322672 0.206164 1.676180 -14.033009 0.000000 0.000000 0.000001 0.987774 3.559148 -31.019396 0.165181 1.502228 -12.558718 0.174707 1.545328 -12.917072 0.000001 -0.000000 -0.000000 3.548623 7.283803 -34.426896 0.083384 -2.952085 -10.036487 0.160029 1.505403 -12.354157 -0.000000 -0.000000 0.000001 1.709196 19.304353 1.634338 47.399194 49.464520 22.812656 -0.011197 66.011176 0.007281 22.491603 -6.085452 -1.799456 -13.071731 -12.223010 -13.977389 -5.546937 -23.257149 -2.087082 -1.273784 0.137199 -2.094862 -0.000001 0.000002 0.000002 0.053642 -0.863196 7.097649 0.008243 -0.338119 2.779508 0.193740 -1.632464 13.524430 0.000000 0.000003 -0.000001 0.130170 -1.341166 11.075936 0.024986 -0.589608 4.844144 0.069455 -0.981789 8.083740 0.000000 0.000000 0.000001 0.214522 -1.716644 14.231428 0.015086 -0.457686 3.765830 0.021788 -0.550867 4.525069 0.000000 -0.000000 -0.000001 0.221550 -1.744055 14.465557 -0.000003 0.007931 -0.000095 0.010302 -0.379537 3.106085 0.000001 -0.000001 0.000000 -16.507647 -3.156755 12.011900 8.102627 -10.193016 -8.820347 5.726401 -15.797258 -7.168574 -0.000023 0.000002 0.000023 0.000000 -0.000000 0.000000 4.396320 -2.158153 -3.510875 18.246572 -1.906571 -2.261822 -19.689718 -14.632103 2.915375 -0.051178 -0.000069 0.076767 -0.000000 -0.000000 -0.000000 
-86.499657 96.381042 -3.257115 -1.583470 49.403906 2.072247 3.115827 14.649567 0.882337 0.708007 1.986148 -1.250226 0.745497 1.978032 -1.242460 1.495816 -11.125150 6.932688 10.924708 -53.001192 33.592182 -0.000000 -0.000000 0.000000 -0.273651 3.091113 5.667334 51.171962 -32.060232 -64.843562 0.007413 -55.444610 0.003904 34.502923 -6.803861 -16.567532 -1.540398 3.690018 6.142328 3.938089 7.949320 0.747594 -0.579596 1.574940 2.538719 0.000002 0.000002 0.000004 0.991489 3.565375 -31.078932 0.393481 2.298633 -19.433403 0.312657 2.055966 -17.305365 0.000000 0.000000 -0.000000 1.125388 3.778157 -33.174625 0.389840 2.288772 -19.340589 0.287556 1.973457 -16.589811 -0.000000 -0.000002 -0.000000 1.405073 4.173864 -37.202763 0.330661 2.112218 -17.802973 0.252936 1.853729 -15.555991 -0.000001 0.000001 -0.000000 4.487637 7.642340 -41.647639 0.217662 -2.342046 -15.207722 0.233759 1.808956 -14.945000 0.000001 -0.000000 0.000001 1.694147 19.363320 1.575454 49.947701 50.126017 17.752988 -0.010873 65.368810 0.006968 19.953074 -6.777765 3.223890 -13.071813 -12.223018 -13.977371 -5.547005 -23.257230 -2.087092 -1.273784 0.137199 -2.094865 0.000002 0.000005 0.000001 0.053636 -0.863127 7.097053 0.008244 -0.338008 2.778791 0.193742 -1.632430 13.524110 -0.000001 -0.000000 0.000001 0.135804 -1.369588 11.313960 0.026308 -0.604856 4.969664 0.067772 -0.969844 7.984706 -0.000002 0.000000 0.000000 0.221368 -1.743304 14.457629 0.016002 -0.471314 3.877818 0.020884 -0.539557 4.431967 -0.000001 0.000002 -0.000001 0.221533 -1.743982 14.465004 0.000010 0.007989 0.000042 0.010306 -0.379508 3.105860 -0.000001 0.000001 -0.000001 -16.621772 -2.232901 12.637073 7.110644 -10.077373 -9.122053 6.267872 -17.112658 -7.223822 -0.222087 -0.000005 0.000005 -0.000000 -0.000004 0.000000 3.602584 -3.918050 -3.028295 18.604436 -2.225849 -3.181586 -19.568460 -13.154753 3.734664 -0.205017 -0.000011 0.015894 -0.000000 0.000000 -0.000000 
-86.706062 96.447044 -3.040513 -0.793908 48.390593 1.380703 2.562062 13.941386 1.160413 1.006395 1.885374 -1.309558 1.042857 1.877499 -1.292087 2.523842 -10.160592 7.634811 0.731372 -50.508825 26.164139 -0.000000 -0.000000 0.000001 -0.405622 3.788358 5.761677 50.531877 -31.669818 -63.481609 0.007935 -57.280173 0.004341 28.598029 -7.810043 -18.294272 -1.540379 3.690011 6.142313 3.938073 7.949332 0.747606 -0.579594 1.574940 2.538718 0.000001 -0.000004 0.000004 1.149020 3.814029 -33.527022 0.529590 2.652817 -22.583349 0.371579 2.236300 -18.879587 0.000000 0.000000 -0.000000 1.333050 4.077499 -36.205730 0.550435 2.702881 -23.028222 0.357622 2.194882 -18.516894 0.000000 -0.000001 -0.000000 1.701027 4.536334 -41.099014 0.508715 2.602130 -22.130330 0.330447 2.112451 -17.796847 0.000000 0.000000 -0.000000 5.137110 7.815216 -46.474479 0.387114 -1.799571 -19.912117 0.312735 2.081997 -17.302923 -0.000000 0.000000 -0.000001 1.784490 19.781872 1.307614 53.636434 50.378943 12.375213 -0.010312 64.209160 0.006481 17.537043 -8.079835 6.619851 -13.066779 -12.221736 -13.977875 -5.542673 -23.251325 -2.086322 -1.273783 0.137199 -2.094866 0.000004 0.000001 -0.000001 0.053711 -0.863741 7.102121 0.008309 -0.339500 2.790912 0.193801 -1.632752 13.526755 0.000001 0.000000 -0.000000 0.141911 -1.399757 11.566580 0.028205 -0.626416 5.147219 0.066070 -0.957603 7.883352 0.000000 -0.000001 0.000000 0.229163 -1.773276 14.711903 0.017367 -0.491020 4.039940 0.019994 -0.527674 4.334146 -0.000001 -0.000000 -0.000000 0.221806 -1.745083 14.474175 -0.000003 0.006293 -0.000073 0.010374 -0.380394 3.113121 0.000000 -0.000000 0.000000 -16.408220 -2.149607 13.101310 6.285362 -9.893172 -9.105444 6.828108 -15.424264 -6.771511 -0.352368 0.000004 0.000126 -0.000000 -0.000001 0.000000 2.896488 -5.186375 -3.180771 18.411569 -1.959094 -3.229167 -19.529041 -11.236307 3.670592 -0.323169 -0.000022 0.000000 -0.000000 0.000002 -0.000000 
-86.849266 96.540810 -2.831570 -0.135410 46.997951 1.050781 1.739703 13.788460 1.466471 1.170342 1.859790 -1.560734 1.213059 1.852616 -1.536809 5.339958 -9.070023 6.676790 -5.880331 -47.584637 17.199174 0.000000 0.000000 0.000001 -0.502299 4.291104 5.875496 50.811338 -30.379093 -61.565071 0.008767 -59.789099 0.005037 24.350383 -6.820796 -21.131017 -1.540392 3.690021 6.142332 3.938068 7.949322 0.747602 -0.579600 1.574937 2.538718 0.000002 -0.000002 0.000004 1.227987 3.930333 -34.696340 0.606988 2.831633 -24.201517 0.403777 2.328254 -19.688101 0.000001 -0.000000 -0.000000 1.441997 4.221959 -37.711582 0.653364 2.933045 -25.122261 0.401371 2.321360 -19.627407 -0.000000 -0.000001 0.000001 1.860222 4.712045 -43.073867 0.638151 2.899905 -24.826720 0.384979 2.275313 -19.222060 -0.000001 -0.000000 0.000001 5.475803 7.882768 -48.954483 0.524827 -1.445805 -23.054156 0.371710 2.262434 -18.878108 0.000002 0.000001 -0.000000 1.927429 20.649967 1.023331 56.814296 50.402025 8.401859 -0.009528 62.410075 0.005781 15.909684 -8.499163 7.620037 -13.065502 -12.221409 -13.978009 -5.541593 -23.249836 -2.086116 -1.273784 0.137196 -2.094866 -0.000002 -0.000003 -0.000001 0.053731 -0.863913 7.103538 0.008338 -0.339892 2.794177 0.193831 -1.632839 13.527516 0.000000 0.000001 -0.000000 0.147239 -1.425594 11.783153 0.030477 -0.650875 5.348878 0.064442 -0.945754 7.785208 0.000001 -0.000001 -0.000000 0.236487 -1.800917 14.946737 0.019037 -0.514235 4.230965 0.019060 -0.515200 4.231540 -0.000000 -0.000001 0.000000 0.221876 -1.745360 14.476644 0.000007 0.005843 -0.000002 0.010371 -0.380627 3.114993 -0.000001 -0.000000 0.000000 -17.152789 -2.140199 13.200451 7.621618 -9.985973 -8.870818 6.875573 -12.579204 -6.832954 -1.129945 0.000001 0.000002 0.000000 0.000003 0.000000 2.172785 -5.253791 -3.797738 18.475631 -1.032038 -2.697093 -19.543480 -10.607793 3.190031 -0.351137 -0.000002 -0.000001 -0.000000 -0.000000 -0.000000 
-86.915993 96.594307 -2.555034 -0.004628 45.442867 1.332436 0.876637 13.684536 1.635829 1.418810 1.839958 -1.731591 1.465116 1.834480 -1.699224 8.331665 -7.973921 4.267748 -7.769360 -42.697022 7.819917 -0.000000 0.000000 0.000000 -0.572618 4.599961 6.105562 51.208667 -28.796887 -60.030615 0.009397 -61.418379 0.005609 24.071052 -5.794673 -22.368562 -1.540386 3.690014 6.142323 3.938061 7.949322 0.747579 -0.579594 1.574942 2.538729 0.000001 0.000003 0.000001 1.281040 4.005726 -35.463425 0.645743 2.916219 -24.974138 0.419598 2.371984 -20.074093 -0.000001 -0.000001 -0.000000 1.507073 4.304590 -38.587113 0.707383 3.045463 -26.158298 0.423612 2.382785 -20.169649 -0.000002 0.000000 0.000000 1.944811 4.800628 -44.094209 0.708545 3.047314 -26.183667 0.414008 2.356881 -19.940493 -0.000001 0.000001 0.000001 5.638452 7.909883 -50.138592 0.603054 -1.267178 -24.668092 0.403918 2.354470 -19.687329 0.000001 -0.000001 -0.000002 2.001931 21.163787 0.800219 59.104427 51.278144 5.496528 -0.008639 60.072736 0.004994 14.759661 -7.759907 7.584266 -13.066849 -12.221744 -13.977866 -5.542730 -23.251397 -2.086314 -1.273784 0.137196 -2.094864 -0.000001 0.000003 -0.000001 0.053715 -0.863748 7.102273 0.008299 -0.339511 2.790968 0.193820 -1.632752 13.526838 -0.000001 -0.000001 -0.000000 0.150944 -1.443220 11.931093 0.032697 -0.674330 5.542240 0.063170 -0.936361 7.707349 0.000001 -0.000000 -0.000000 0.242046 -1.821649 15.123108 0.020903 -0.538437 4.430167 0.018247 -0.504393 4.142548 -0.000001 -0.000000 -0.000000 0.221809 -1.745076 14.474236 -0.000003 0.006299 -0.000057 0.010361 -0.380394 3.113088 0.000001 0.000000 0.000000 -17.400091 -0.665078 13.158349 8.844253 -9.898849 -8.787376 5.926382 -10.771377 -5.564200 -0.726709 0.000443 -0.192898 0.000000 0.000002 0.000000 1.703933 -4.643028 -4.412865 18.939681 -0.209435 -2.398871 -19.765148 -10.505437 2.737582 -0.413727 0.000003 0.000004 -0.000000 0.000005 -0.000000 
-86.901199 96.539177 -2.232521 -0.628943 43.645435 2.029379 0.377847 13.492540 2.123430 1.773996 1.808477 -1.887195 1.823790 1.802485 -1.844639 10.492125 -6.776078 1.493200 -5.756520 -35.067380 -1.297053 0.000000 -0.000001 -0.000000 -0.599996 4.625724 6.399675 51.418501 -27.466569 -59.188384 0.009569 -61.965436 0.005741 25.976582 -6.044497 -21.416319 -1.540385 3.690012 6.142301 3.938071 7.949330 0.747604 -0.579600 1.574937 2.538722 0.000004 0.000003 0.000001 1.321264 4.061446 -36.035163 0.671754 2.971380 -25.480748 0.430115 2.400588 -20.327160 -0.000001 0.000000 0.000000 1.554306 4.362980 -39.212266 0.739854 3.110607 -26.763005 0.436350 2.417142 -20.473828 0.000001 0.000001 -0.000001 2.003906 4.860652 -44.795867 0.746326 3.122892 -26.885701 0.428853 2.397404 -20.298783 0.000000 0.000000 -0.000001 5.745406 7.925844 -50.914996 0.642136 -1.182712 -25.438473 0.419760 2.398226 -20.073571 -0.000002 0.000000 -0.000001 1.966617 20.584220 0.602009 61.089273 53.554499 2.580383 -0.007855 57.546331 0.004342 13.644836 -6.584362 8.245316 -13.067579 -12.221938 -13.977810 -5.543363 -23.252266 -2.086437 -1.273785 0.137196 -2.094867 -0.000000 0.000003 0.000001 0.053708 -0.863659 7.101488 0.008294 -0.339289 2.789162 0.193796 -1.632708 13.526433 -0.000000 0.000001 -0.000001 0.153072 -1.453226 12.015095 0.034450 -0.692081 5.688562 0.062374 -0.930469 7.658577 -0.000001 0.000000 -0.000000 0.245477 -1.834222 15.230077 0.022505 -0.559137 4.600532 0.017736 -0.497086 4.082490 -0.000001 -0.000000 -0.000000 0.221776 -1.744921 14.472857 -0.000008 0.006549 0.000069 0.010350 -0.380264 3.112008 -0.000001 0.000001 -0.000000 -17.283502 0.921392 13.509049 10.479775 -9.897672 -9.006800 4.646688 -10.012648 -4.680550 -1.550505 0.000002 0.000003 0.000000 0.000000 0.000000 1.760775 -3.220618 -4.692344 19.765184 -0.076536 -2.390439 -20.231256 -10.270454 2.556882 -0.447475 0.000011 -0.000000 -0.000000 -0.000001 0.000000 
